<?xml version="1.0" standalone="no"?>
<!DOCTYPE svg PUBLIC "-//W3C//DTD SVG 1.1//EN" "http://www.w3.org/Graphics/SVG/1.1/DTD/svg11.dtd" >
<!--
2013-9-30: Created.
-->
<svg>
<metadata>
Created by iconfont
</metadata>
<defs>

<font id="sm-components-icon-" horiz-adv-x="1024" >
  <font-face
    font-family="sm-components-icon-"
    font-weight="500"
    font-stretch="normal"
    units-per-em="1024"
    ascent="896"
    descent="-128"
  />
    <missing-glyph />
    
    <glyph glyph-name="attribute" unicode="&#58975;" d="M960 542.016v-476.8a33.28 33.28 0 0 0-33.28-33.216H97.28a33.28 33.28 0 0 0-33.28 33.28V542.016h896z m-620.992-279.04H141.312v-153.6h197.696v153.6z m297.984 0H387.008v-153.6h249.984v153.6z m245.696 0h-197.696v-153.6h197.696v153.6zM636.992 464.64H387.008v-153.6h249.984v153.6z m245.696 0h-197.696v-153.6h197.696v153.6z m-543.68 0H141.312v-153.6h197.696v153.6z m603.456 272.384A17.536 17.536 0 0 0 960 719.36v-124.416h-274.688V737.024z m-305.152 0v-142.08H386.688v142.08h250.624z m-298.624 0v-142.08H64V719.488a17.536 17.536 0 0 0 17.536 17.6h257.152z"  horiz-adv-x="1024" />

    
    <glyph glyph-name="solid-left" unicode="&#58970;" d="M64 384a448 448 0 1 1 896 0 448 448 0 0 1-896 0z m629.4528 35.5328a43.9808 43.9808 0 0 0 0-71.0656L398.6944 133.12a7.9872 7.9872 0 0 0-12.6976 6.4V208.896c0 2.56 1.28 4.9152 3.2768 6.4L620.032 384 389.2736 552.704a7.9872 7.9872 0 0 0-3.2256 6.4512V628.5312a7.9872 7.9872 0 0 0 12.6464 6.4l294.7584-215.3984z"  horiz-adv-x="1024" />

    
    <glyph glyph-name="swipe" unicode="&#58971;" d="M359.04 48a35.968 35.968 0 1 0 0-72 35.968 35.968 0 0 0 0 72z m153.984 0a35.968 35.968 0 1 0 0-72 35.968 35.968 0 0 0 0 72z m153.984 0a35.968 35.968 0 1 0 0-72 35.968 35.968 0 0 0 0 72z m145.984 737.024a32 32 0 0 0 32-32v-601.024a32 32 0 0 0-32-32h-600.96a32 32 0 0 0-32 32v600.96a32 32 0 0 0 32 32zM144 707.968v-55.936H96v-409.024h48v-56H72a32 32 0 0 0-32 32v456.96a32 32 0 0 0 32 32H144z m807.04 0a32 32 0 0 0 32-32v-456.96a32 32 0 0 0-32-32h-72.064v56h48v408.96h-48v56.064z m-178.048-427.968h-520.96V192h520.96V280z m0 433.024h-520.96v-369.024h520.96V713.024z"  horiz-adv-x="1024" />

    
    <glyph glyph-name="solid-right" unicode="&#58972;" d="M960 384a448 448 0 1 1-896 0 448 448 0 0 1 896 0z m-629.4528-35.5328a44.032 44.032 0 0 0 0 71.0656L625.2544 634.88a7.9872 7.9872 0 0 0 12.8-6.4V559.104c0-2.56-1.3312-4.9152-3.2768-6.4L403.968 384l230.7584-168.704c2.048-1.536 3.1744-3.8912 3.1744-6.4512v-69.376a7.9872 7.9872 0 0 0-12.6976-6.4l-294.7072 215.3472v0.0512z"  horiz-adv-x="1024" />

    
    <glyph glyph-name="fill-extension" unicode="&#58973;" d="M616.32 826.688a8 8 0 0 0 10.56-0.896l233.92-247.488a8 8 0 0 0 2.176-5.504v-627.84a8 8 0 0 0-8-7.936H165.888a4.928 4.928 0 0 0-4.864 4.864V345.984c0 1.536 0.704 3.008 1.92 3.904L340.48 483.392a4.928 4.928 0 0 0 6.528-0.512l103.04-109.056V376.32a14.72 14.72 0 0 0 7.104 12.608l56.96 37.888a14.72 14.72 0 0 0 22.144-12.608v-80.512a14.72 14.72 0 0 0-7.168-12.608l-37.12-24.768v-130.688l96 33.216V715.392l-192-144.384v-69.696a8 8 0 0 0-13.632-5.632l-53.632 53.632a16 16 0 0 0-4.736 11.328v42.368c0 2.56 1.216 4.864 3.2 6.4zM323.136 65.984l-117.888-40v-16.96h117.888v56.96z m44.16 1.92v-58.88h80.512v20.224L367.36 67.84z m220.736 55.04l-96-33.152v-80.768h96v113.92z m71.936 1.536v-115.456h131.008v52.48l-130.944 62.976zM323.2 415.04L205.248 326.4v-249.6l117.888 39.936v298.24z m44.16-18.112v-275.776l80.512-38.656V311.808L367.36 396.928z m292.736 289.088v-481.984l130.944-63.04v406.4l-130.944 138.624z m-145.92-110.208a14.72 14.72 0 0 0 22.144-12.672v-80.512a14.72 14.72 0 0 0-7.168-12.608l-56.896-37.888a14.528 14.528 0 0 0-17.92 2.176 14.72 14.72 0 0 0-4.288 10.432V525.248a14.72 14.72 0 0 0 7.168 12.608z"  horiz-adv-x="1024" />

    
    <glyph glyph-name="flyto" unicode="&#58974;" d="M393.92 505.344a336.896 336.896 0 0 0 458.496-0.768l2.24-2.112 1.28-1.088 3.328-3.264 0.256-0.192 3.584-3.648c2.56-2.56 4.928-5.12 7.36-7.68l0.064-0.064 3.456-3.84 0.128-0.064 3.072-3.52 0.896-1.088 2.368-2.752 0.576-0.64a337.024 337.024 0 0 0 0-433.28l-0.64-0.64c-0.64-0.896-1.536-1.792-2.432-2.816l-0.896-1.024c-0.96-1.28-2.112-2.432-3.072-3.584l-0.064-0.128-3.456-3.776a206.08 206.08 0 0 0-7.296-7.68l-3.648-3.584c-2.752-2.688-5.12-5.12-7.68-7.424a337.216 337.216 0 0 0-465.664 7.232l-3.84 3.84a660.416 660.416 0 0 0-7.232 7.552c-1.28 1.28-2.368 2.56-3.52 3.84l-0.064 0.128a108.352 108.352 0 0 0-3.072 3.584l-0.896 1.024-2.368 2.816-0.512 0.64a337.152 337.152 0 0 0-0.064 433.28c0.128 0.192 0.384 0.32 0.512 0.576l2.432 2.752 0.896 1.088 3.072 3.52 3.52 3.84c2.496 2.752 4.928 5.248 7.36 7.68l0.128 0.128 3.584 3.584c1.344 1.28 2.496 2.496 3.584 3.456a16.512 16.512 0 0 1 1.28 1.152l1.088 1.088 1.088 1.088a7.552 7.552 0 0 0 0.768 0.768z m-3.776-513.344c8.96-3.584 18.176-6.784 27.264-9.6l-8.896-28.672a415.744 415.744 0 0 0-29.312 10.304z m-51.968 25.024c8.32-4.8 16.832-9.28 25.536-13.44l-12.992-27.072a419.072 419.072 0 0 0-27.52 14.528z m263.68 101.76a293.44 293.44 0 0 1-87.104-19.584c5.824-17.536 13.12-34.624 21.76-51.008 13.12-24.32 28.48-43.904 44.48-56.512 6.336-5.12 13.312-9.28 20.8-12.352z m42.048 0v-139.456c7.552 3.136 14.528 7.296 20.864 12.352 16 12.608 31.36 32.064 44.352 56.448 8.704 16.32 16 33.408 21.76 51.008a292.928 292.928 0 0 1-86.976 19.712z m-167.36-38.016a297.216 297.216 0 0 1-44.672-31.36c23.808-21.952 51.2-39.552 80.96-52.096l8.32-3.328a324.352 324.352 0 0 0-44.608 86.784z m292.608 0.128c-11.776-33.792-26.88-63.296-44.544-86.784l8.32 3.264a280.128 280.128 0 0 1 80.96 52.096 292.672 292.672 0 0 1-44.736 31.36z m-478.72-31.36c7.552-6.016 15.296-11.712 23.232-17.088l-16.896-24.832a431.168 431.168 0 0 0-24.96 18.432z m-42.368 39.168c6.528-7.04 13.44-13.824 20.48-20.352l-20.352-22.08a407.104 407.104 0 0 0-22.08 21.952z m200.64 148.224H340.8a281.344 281.344 0 0 1 62.208-156.8c18.816 16.192 39.36 30.272 61.312 41.984a562.112 562.112 0 0 0-15.616 114.816z m456.32 0h-108.032c-1.216-38.72-6.4-77.184-15.552-114.816 21.952-11.648 42.496-25.728 61.312-41.984a280.32 280.32 0 0 1 62.272 156.8zM211.84 133.632c5.376-7.936 11.136-15.616 17.216-23.104l-23.36-18.816a389.632 389.632 0 0 0-18.624 24.96z m389.888 103.232H490.88c1.088-32.32 5.184-64.512 12.224-96.128l0.256-0.896a334.976 334.976 0 0 0 98.432 21.12v75.904z m153.088 0.128h-110.976v-75.968a335.104 335.104 0 0 0 98.56-21.12l0.192 0.96a522.24 522.24 0 0 1 12.224 96.128z m-572.224-53.568a390.4 390.4 0 0 1 13.632-25.408l-25.856-15.168a413.056 413.056 0 0 0-14.72 27.392z m-21.504 53.568c2.88-9.088 6.144-18.24 9.728-27.072l-27.84-11.2a418.752 418.752 0 0 0-10.496 29.248zM147.84 293.12l2.56-14.208 3.072-14.08-29.248-6.976a425.408 425.408 0 0 0-5.952 30.528l29.568 4.736z m694.912 142.72a334.4 334.4 0 0 0-61.312-42.048c9.088-37.632 14.336-76.096 15.552-114.816h107.968a281.024 281.024 0 0 1-62.208 156.8z m-339.392-59.84l-0.256-0.896A522.24 522.24 0 0 1 490.88 279.04h110.912V355.008a334.464 334.464 0 0 0-98.432 20.992z m239.04 0.128a335.104 335.104 0 0 0-98.496-21.12V279.04h110.976a521.408 521.408 0 0 1-12.288 96.128zM403.008 435.84a282.432 282.432 0 0 1-62.208-156.8H448.64c1.28 38.72 6.464 77.184 15.616 114.816a334.464 334.464 0 0 0-61.312 41.984zM142.976 350.656c0.128-9.6 0.64-19.2 1.408-28.8l-29.888-2.56a402.432 402.432 0 0 0-1.472 31.04z m-26.048 61.632l29.696-3.968c-1.344-9.6-2.24-19.2-2.816-28.8l-30.08 1.92c0.768 10.24 1.728 20.608 3.2 30.848z m484.992 124.352a85.12 85.12 0 0 1-20.8-12.352c-16-12.608-31.36-32.128-44.48-56.512a326.4 326.4 0 0 1-21.76-51.008c27.776-10.944 57.088-17.6 86.912-19.712h0.128z m41.984 0v-139.52a292.928 292.928 0 0 1 87.04 19.776 339.648 339.648 0 0 1-21.76 51.008c-13.12 24.384-28.48 43.84-44.416 56.384a84.608 84.608 0 0 1-20.864 12.352z m80.768-14.656c17.6-23.552 32.704-52.992 44.544-86.848a297.6 297.6 0 0 1 44.672 31.424 281.216 281.216 0 0 1-80.96 52.096z m-203.584 0l-8.32-3.328a281.408 281.408 0 0 1-80.96-52.096c13.888-11.84 28.864-22.4 44.736-31.36 11.776 33.728 26.88 63.168 44.544 86.72z m-391.808-50.688l28.8-8.32c-2.432-8.64-4.672-17.408-6.528-26.24l-29.376 6.208c2.048 9.408 4.416 18.944 7.104 28.352z m792.832 41.856c3.904-9.6 7.488-19.328 10.624-29.248l-28.48-9.152a348.736 348.736 0 0 1-9.92 27.136z m-515.2 288.64s48.896 47.36 78.4 22.336c31.04-26.24-9.856-67.776-28.224-85.44-18.368-17.6-206.528-194.048-206.528-194.048s-50.624-51.648-123.968-19.52l39.552 46.4c10.24 1.536 18.24 5.888 27.2 14.848l49.856 43.264-150.208 83.072s-31.36 18.688 35.584 35.84c0 0 151.168-27.776 178.56-33.088 0 0 12.928-0.64 28.544 14.528z m487.68-232.96c5.248-8.96 10.24-18.048 14.848-27.328l-26.88-13.376a390.592 390.592 0 0 1-13.76 25.408z m-829.696-12.352s-10.88 32.832 42.752 21.76c15.68-3.2 30.656-3.328 40.704-4.48l-36.608-43.392c-35.072 13.568-46.848 26.112-46.848 26.112z m794.112 63.36c6.592-8.064 12.8-16.32 18.752-24.832l-24.64-17.216-8.448 11.776-8.96 11.328z m-42.624 45.184c7.68-7.04 15.168-14.336 22.144-21.824l-21.824-20.608a382.592 382.592 0 0 1-20.608 20.288z m-48.832 38.4c8.576-5.76 16.96-11.84 25.088-18.304l-18.56-23.488a384.704 384.704 0 0 1-23.296 16.96z m-53.952 30.912c9.344-4.48 18.56-9.28 27.52-14.4l-14.848-26.048a400.768 400.768 0 0 1-25.6 13.376z m-57.984 22.528c9.92-3.008 19.776-6.4 29.44-10.24l-10.88-27.904a417.28 417.28 0 0 1-27.328 9.408z m-60.672 13.696c10.24-1.536 20.544-3.52 30.592-5.76l-6.592-29.248a407.104 407.104 0 0 1-28.352 5.312z m-61.952 4.48c10.368 0 20.672-0.384 31.04-1.152l-2.176-29.952c-9.536 0.704-19.2 1.088-28.8 1.088z"  horiz-adv-x="1024" />

    
    <glyph glyph-name="copy" unicode="&#58969;" d="M832 832H296a8 8 0 0 1-8-8V768c0-4.416 3.584-8 8-8h496v-688c0-4.416 3.584-8 8-8h56a8 8 0 0 1 8 8V800A32 32 0 0 1 832 832z m-128-128H192a32 32 0 0 1-32-32v-530.688a32 32 0 0 1 9.408-22.592l173.312-173.312a33.088 33.088 0 0 1 7.36-5.504v-1.92h4.224c3.52-1.28 7.168-1.984 11.008-1.984H704a32 32 0 0 1 32 32v704A32 32 0 0 1 704 704zM350.016 39.808l-86.144 86.208H350.08v-86.208h-0.064z m313.984-31.808H414.016v142.016a40 40 0 0 1-40 40H232V632h432v-624z"  horiz-adv-x="1024" />

    
    <glyph glyph-name="layer-color" unicode="&#58964;" d="M846.528 280S960 175.04 960 97.472a113.472 113.472 0 1 0-227.008 0c0 78.528 113.536 182.528 113.536 182.528zM518.016 784.768c8.448 0 16.64-3.392 22.592-9.408l311.744-311.68a32 32 0 0 0 0-45.312l-373.76-373.76a32 32 0 0 0-45.248 0l-311.68 311.744a32 32 0 0 0 0 45.248l164.352 164.416H120a8 8 0 0 0-8 8v48c0 4.416 3.584 8 8 8h230.016L495.36 775.36a31.936 31.936 0 0 0 22.656 9.408z m328.32-611.072l-1.28-1.664c-31.616-40.256-40.064-65.792-40.064-74.56a41.472 41.472 0 0 1 83.008 0c0 1.536-0.448 9.984-9.472 27.712a295.232 295.232 0 0 1-30.72 46.656l-1.472 1.856z m-106.176 234.304H229.824l-28.992-28.992 255.168-255.168 284.16 284.16zM518.016 696.192L451.84 630.016h26.176c4.416 0 8-3.584 8-8v-48a8 8 0 0 0-8-8h-90.24L293.888 472h448.384L518.016 696.192z"  horiz-adv-x="1024" />

    
    <glyph glyph-name="locate" unicode="&#58965;" d="M952 422.016h-122.24a320.128 320.128 0 0 1-279.744 279.808V824A8 8 0 0 1 542.016 832H481.92a8 8 0 0 1-8-8v-122.24a320.128 320.128 0 0 1-279.808-279.744H72A8 8 0 0 1 64 414.016v-60.032c0-4.416 3.584-8 8-8h122.24a320.128 320.128 0 0 1 279.744-279.808v-122.176c0-4.416 3.648-8 8-8h60.032a8 8 0 0 1 8 8v122.24a320.128 320.128 0 0 1 279.808 279.744h122.176A8 8 0 0 1 960 353.984V414.08a8 8 0 0 1-8 8zM512 139.968a243.968 243.968 0 1 0 0 488.064 243.968 243.968 0 1 0 0-488z m0 364.032c-32.128 0-62.08-12.416-84.8-35.2-22.72-22.72-35.2-52.672-35.2-84.8s12.48-62.08 35.2-84.8a119.552 119.552 0 0 1 169.6 0 119.552 119.552 0 0 1 0 169.6A118.592 118.592 0 0 1 512 504z"  horiz-adv-x="1024" />

    
    <glyph glyph-name="coordinate-coversion" unicode="&#58966;" d="M950.528 569.472c4.416 0 8-3.584 8-8v-530.944a32 32 0 0 0-32-32H192.448v-55.168a5.696 5.696 0 0 0-9.088-4.48l-118.4 90.688a5.696 5.696 0 0 0 0 9.024l118.4 90.752a5.696 5.696 0 0 0 9.152-4.48v-54.4h694.016V561.536c0 4.48 3.584 8 8 8zM832.64 834.752a5.696 5.696 0 0 0 6.016-0.64l118.4-90.688a5.696 5.696 0 0 0 0-8.96l-118.4-90.752a5.696 5.696 0 0 0-9.152 4.48v54.336H135.488v-491.008a8 8 0 0 0-8-8h-56a8 8 0 0 0-8 8V742.528a32 32 0 0 0 32 32h734.016v55.104c0 2.176 1.28 4.16 3.2 5.12zM307.2 566.528l61.824-116.352 60.544 116.352h72.128L405.824 390.72l105.344-186.24H436.096L367.744 329.664l-68.608-125.184H224.512l105.344 188.928-95.488 173.12H307.2z m276.928 0l72.576-143.232 71.04 143.232h71.744l-113.344-210.176v-151.872h-62.08v152.32L511.232 566.592h72.96z"  horiz-adv-x="1024" />

    
    <glyph glyph-name="layer-picker" unicode="&#58967;" d="M519.36 437.056c2.112 0 4.16-0.832 5.632-2.368l385.28-385.152a8 8 0 0 0 0-11.328l-50.944-50.944a8 8 0 0 0-11.328 0L462.784 372.48a8 8 0 0 0 0 11.328l50.944 50.944a8 8 0 0 0 5.632 2.304z m360.64 347.968a32 32 0 0 0 32-32v-403.008a8 8 0 0 0-8-8h-56a8 8 0 0 0-8 8V712.96H184v-656h363.008c4.416 0 8-3.584 8-8v-56a8 8 0 0 0-8-8H144a32 32 0 0 0-32 32v736a32 32 0 0 0 32 32zM376.512 300.928l21.888-25.536a41.152 41.152 0 0 1 30.976-14.4l33.6-0.192-25.472-21.888a41.152 41.152 0 0 1-14.4-30.976l-0.192-33.6-21.888 25.472a41.152 41.152 0 0 1-31.04 14.4l-33.6 0.192 25.536 21.888a41.152 41.152 0 0 1 14.4 31.04l0.192 33.6zM305.28 525.12l28.992-33.792c10.304-12.032 25.28-18.944 41.088-19.008l44.48-0.32-33.856-28.992a54.528 54.528 0 0 1-19.008-41.088l-0.256-44.48-28.992 33.792a54.528 54.528 0 0 1-41.088 19.008l-44.48 0.256 33.792 28.992a54.592 54.592 0 0 1 19.072 41.088l0.256 44.544zM609.984 627.2l37.12-43.264c13.184-15.36 32.384-24.32 52.608-24.448l56.96-0.32-43.264-37.12c-15.36-13.184-24.256-32.384-24.384-52.608l-0.384-56.96-37.12 43.264a69.888 69.888 0 0 1-52.608 24.384l-56.96 0.384 43.264 37.12c15.36 13.12 24.32 32.32 24.448 52.608l0.32 56.96z"  horiz-adv-x="1024" />

    
    <glyph glyph-name="click" unicode="&#58968;" d="M490.048 475.392l393.216-255.616s-86.784-24.192-139.392-45.44l100.8-134.976c4.288-5.632 1.984-14.336-4.992-19.456l-44.288-32.32c-6.912-5.12-16-4.736-20.224 0.896l-103.616 138.752a2048.448 2048.448 0 0 1-102.208-97.728l-1.984-2.048-77.312 447.936zM368.64 254.4a36.032 36.032 0 0 0-8.32-50.176l-123.264-88.128a35.968 35.968 0 0 0-41.856 58.624l123.2 88.064a36.032 36.032 0 0 0 50.24-8.32zM151.04 487.04l149.44-24.896a36.032 36.032 0 0 0-11.84-71.04L139.136 416a36.032 36.032 0 0 0 11.84 71.04z m762.24 156.672a36.032 36.032 0 0 0-8.32-50.24l-123.264-88.064a35.968 35.968 0 1 0-41.856 58.56l123.264 88.128a36.032 36.032 0 0 0 50.24-8.384z m-572.544 95.36L428.736 615.68a35.968 35.968 0 1 0-58.56-41.92L282.048 697.088a36.032 36.032 0 0 0 58.624 41.856z m282.624 85.44c19.584-3.264 32.832-21.76 29.568-41.408L628.032 633.6a36.032 36.032 0 1 0-71.04 11.84l24.896 149.376a35.968 35.968 0 0 0 41.408 29.632z"  horiz-adv-x="1024" />

    
    <glyph glyph-name="bofang3" unicode="&#59152;" d="M540.032 825.024c-245.952 0-446.016-200.064-446.016-446.016S294.08-67.008 540.032-67.008s446.016 200.064 446.016 446.016S785.984 825.024 540.032 825.024z m0-828.032c-210.624 0-382.016 171.392-382.016 382.016s171.392 382.016 382.016 382.016 382.016-171.392 382.016-382.016-171.392-382.016-382.016-382.016zM417.152 252.16c0-35.2 24.96-49.6 55.424-32L692.16 346.944c30.528 17.6 30.528 46.4 0 64L472.576 537.792c-30.528 17.6-55.424 3.2-55.424-32V252.16z"  horiz-adv-x="1024" />

    
    <glyph glyph-name="zanting" unicode="&#59243;" d="M430.4 555.392c-18.24 0-33.088-12.736-33.088-28.544v-285.696c0-15.744 14.784-28.544 33.088-28.544 18.24 0 33.024 12.8 33.024 28.544V526.848c0 15.808-14.848 28.544-33.024 28.544z m164.224 0c-18.24 0-33.024-12.736-33.024-28.544v-285.696c0-15.744 14.72-28.544 33.024-28.544s33.088 12.8 33.088 28.544V526.848c0 15.808-14.848 28.544-33.088 28.544zM512.512 830.016C266.56 830.016 66.496 629.952 66.496 384S266.56-62.016 512.512-62.016 958.528 138.048 958.528 384 758.464 830.016 512.512 830.016z m0-828.032c-210.624 0-382.016 171.392-382.016 382.016s171.392 382.016 382.016 382.016S894.528 594.624 894.528 384 723.136 1.984 512.512 1.984z"  horiz-adv-x="1024" />

    
    <glyph glyph-name="compass" unicode="&#58963;" d="M727.779556 348.899556a7.964444 7.964444 0 0 0 7.224888-11.434667l-215.722666-448.455111a7.964444 7.964444 0 0 0-14.392889 0l-215.608889 448.455111a7.964444 7.964444 0 0 0 7.168 11.434667z m-101.831112-71.964445H398.222222l113.891556-236.771555 113.891555 236.771555zM512.170667 887.466667a7.964444 7.964444 0 0 0 7.224889-4.551111L733.354667 435.2a7.964444 7.964444 0 0 0-7.224889-11.377778H298.097778a7.964444 7.964444 0 0 0-7.224889 11.377778L504.888889 882.915556a7.964444 7.964444 0 0 0 7.224889 4.551111z"  horiz-adv-x="1024" />

    
    <glyph glyph-name="tupian" unicode="&#58962;" d="M928 736H96a31.963429 31.963429 0 0 1-32-32v-640c0-17.700571 14.299429-32 32-32h832a31.963429 31.963429 0 0 1 32 32V704a31.963429 31.963429 0 0 1-32 32z m-40.009143-631.990857H136.045714v39.862857l138.496 164.315429 150.089143-177.993143 233.508572 276.809143 229.888-272.603429v-30.390857z m0 129.792l-223.817143 265.398857a7.936 7.936 0 0 1-12.178285 0l-227.401143-269.604571-143.981715 170.715428a7.936 7.936 0 0 1-12.214857 0l-132.388571-157.001143V663.990857H887.954286v-430.189714zM304.018286 439.990857a87.990857 87.990857 0 1 1 0 176.018286 87.990857 87.990857 0 0 1 0-176.018286z m0 116.004572a27.940571 27.940571 0 1 0 0-55.990858 27.940571 27.940571 0 0 0-28.013715 27.977143c0 15.506286 12.507429 28.013714 28.013715 28.013715z"  horiz-adv-x="1024" />

    
    <glyph glyph-name="edit" unicode="&#58980;" d="M257.728 144a40.448 40.448 0 0 1 5.952 0.512l168.192 29.44a9.792 9.792 0 0 1 5.312 2.816l423.936 423.936c3.84 3.84 3.84 10.24 0 14.08l-166.208 166.336a9.92 9.92 0 0 1-7.104 2.88 9.92 9.92 0 0 1-7.104-2.88L256.832 357.12a10.176 10.176 0 0 1-2.816-5.312l-29.504-168.192a33.92 33.92 0 0 1 33.216-39.68zM325.12 318.4l362.688 362.624 73.28-73.344-362.688-362.56-88.96-15.744 15.68 89.024z m554.88-258.368H144a32 32 0 0 1-32-32v-36.032c0-4.416 3.584-8 8-8h784a8 8 0 0 1 8 8v36.032a32 32 0 0 1-32 32z"  horiz-adv-x="1024" />

    
    <glyph glyph-name="multi-point" unicode="&#58959;" d="M682.88 575.25m-182 0a182 182 0 1 1 364 0 182 182 0 1 1-364 0ZM689.88 129.25m-94 0a94 94 0 1 1 188 0 94 94 0 1 1-188 0ZM243.88 336.25m-132 0a132 132 0 1 1 264 0 132 132 0 1 1-264 0Z"  horiz-adv-x="1024" />

    
    <glyph glyph-name="chart" unicode="&#58960;" d="M272 616v-464a8 8 0 0 1 8-8h80a8 8 0 0 1 8 8V616a8 8 0 0 1-8 8h-80a8 8 0 0 1-8-8z m192-280v-184a8 8 0 0 1 8-8h80a8 8 0 0 1 8 8V336a8 8 0 0 1-8 8h-80a8 8 0 0 1-8-8z m192 72v-256a8 8 0 0 1 8-8h80a8 8 0 0 1 8 8V408a8 8 0 0 1-8 8h-80a8 8 0 0 1-8-8zM912 16V752a32 32 0 0 1-32 32H144a32 32 0 0 1-32-32v-736a32 32 0 0 1 32-32h736a32 32 0 0 1 32 32z m-72 40H184V712h656z"  horiz-adv-x="1024" />

    
    <glyph glyph-name="point" unicode="&#58961;" d="M512 384m-224 0a224 224 0 1 1 448 0 224 224 0 1 1-448 0Z"  horiz-adv-x="1024" />

    
    <glyph glyph-name="fullscreen" unicode="&#58957;" d="M620.328421 66.613895l38.103579-38.049684-133.335579-133.443369-133.389474 133.389474 38.103579 38.103579 95.232-95.285895 95.285895 95.285895zM182.649263 504.293053l38.103579-38.103579-95.285895-95.285895 95.285895-95.232-38.103579-38.157474L49.313684 370.849684l133.335579 133.443369z m684.786526 0l133.443369-133.389474-133.443369-133.335579-38.103578 38.103579 95.285894 95.232-95.285894 95.232 38.103578 38.157474zM525.096421 846.686316l133.335579-133.335579-38.103579-38.103579L525.042526 770.425263 429.810526 675.247158l-38.103579 38.103579L525.096421 846.686316z"  horiz-adv-x="1024" />

    
    <glyph glyph-name="solid-question" unicode="&#58958;" d="M512 832a448 448 0 1 1 0-896A448 448 0 0 1 512 832z m0-708.032a40 40 0 1 0 0 80 40 40 0 0 0 0-80z m62.912 219.52a48.32 48.32 0 0 1-30.912-44.8v-22.656a8 8 0 0 0-8-8.064h-48a8 8 0 0 0-8 8.064v21.44a111.744 111.744 0 0 0 72 105.792c33.984 13.12 56 41.6 56 72.704 0 44.16-43.072 80-96 80s-96-35.84-96-80v-7.552a8 8 0 0 0-8-8h-48a8 8 0 0 0-8 8v7.616c0 39.296 17.216 75.968 48.384 103.296A168.576 168.576 0 0 0 512 620.032c41.984 0 81.6-14.528 111.616-40.704 31.168-27.328 48.384-64 48.384-103.296 0-57.856-38.08-109.824-97.088-132.48z"  horiz-adv-x="1024" />

    
    <glyph glyph-name="arrow-left" unicode="&#58955;" d="M1015.808 418.944H134.4l378.24 378.368a8 8 0 0 1 0 11.328L472.96 848.192a8 8 0 0 1-11.264 0L3.008 389.312a8 8 0 0 1 0-11.328l459.456-459.584a8 8 0 0 1 11.328 0l39.488 39.616a8 8 0 0 1 0 11.328l-377.472 377.6h880c4.416 0 8 3.584 8 8v56a8 8 0 0 1-8 8z"  horiz-adv-x="1024" />

    
    <glyph glyph-name="arrow-dowm-slim" unicode="&#58956;" d="M474.048 102.4l-112.896 112.96a31.04 31.04 0 0 1-21.952 8.896 37.312 37.312 0 0 1-24.448-8.896c-5.888-5.888-8.768-16.576-8.768-26.24a28.8 28.8 0 0 1 8.768-21.44l175.168-175.808a31.104 31.104 0 0 1 22.08-8.896 30.72 30.72 0 0 1 22.08 8.96l175.168 175.744a30.08 30.08 0 0 1 8.768 22.016c0 8.576 0 16.384-8.768 25.664a32.832 32.832 0 0 1-25.856 10.88 30.72 30.72 0 0 1-21.952-8.896L550.4 103.04V753.344c0 17.664-20.672 31.68-38.336 31.68-17.536 0-37.952-14.08-37.952-31.68V102.4z"  horiz-adv-x="1024" />

    
    <glyph glyph-name="map-compare" unicode="&#58954;" d="M2251.021474 367.238737l-333.123369 288.768a13.473684 13.473684 0 0 1-22.312421-10.132211V68.176842a13.473684 13.473684 0 0 1 22.312421-10.13221l333.069474 288.768a13.473684 13.473684 0 0 1 0 20.37221zM228.136421 346.866526l333.123368-288.768a13.473684 13.473684 0 0 1 22.312422 10.132211V645.874526a13.473684 13.473684 0 0 1-22.312422 10.132211l-333.069473-288.87579a13.473684 13.473684 0 0 1 0-20.264421zM1131.789474-74.105263a26.947368 26.947368 0 1 0 0-53.894737 26.947368 26.947368 0 0 0 0 53.894737z m107.789473 0a26.947368 26.947368 0 1 0 0-53.894737 26.947368 26.947368 0 0 0 0 53.894737z m107.789474 0a26.947368 26.947368 0 1 0 0-53.894737 26.947368 26.947368 0 0 0 0 53.894737z m-215.578947 107.789474a26.947368 26.947368 0 1 0 0-53.894737 26.947368 26.947368 0 0 0 0 53.894737z m107.789473 0a26.947368 26.947368 0 1 0 0-53.894737 26.947368 26.947368 0 0 0 0 53.894737z m107.789474 0a26.947368 26.947368 0 1 0 0-53.894737 26.947368 26.947368 0 0 0 0 53.894737z m-215.578947 107.789473a26.947368 26.947368 0 1 0 0-53.894737 26.947368 26.947368 0 0 0 0 53.894737z m107.789473 0a26.947368 26.947368 0 1 0 0-53.894737 26.947368 26.947368 0 0 0 0 53.894737z m107.789474 0a26.947368 26.947368 0 1 0 0-53.894737 26.947368 26.947368 0 0 0 0 53.894737z m-215.578947 107.789474a26.947368 26.947368 0 1 0 0-53.894737 26.947368 26.947368 0 0 0 0 53.894737z m107.789473 0a26.947368 26.947368 0 1 0 0-53.894737 26.947368 26.947368 0 0 0 0 53.894737z m107.789474 0a26.947368 26.947368 0 1 0 0-53.894737 26.947368 26.947368 0 0 0 0 53.894737z m-215.578947 107.789474a26.947368 26.947368 0 1 0 0-53.894737 26.947368 26.947368 0 0 0 0 53.894737z m107.789473 0a26.947368 26.947368 0 1 0 0-53.894737 26.947368 26.947368 0 0 0 0 53.894737z m107.789474 0a26.947368 26.947368 0 1 0 0-53.894737 26.947368 26.947368 0 0 0 0 53.894737z m-215.578947 107.789473a26.947368 26.947368 0 1 0 0-53.894737 26.947368 26.947368 0 0 0 0 53.894737z m107.789473 0a26.947368 26.947368 0 1 0 0-53.894737 26.947368 26.947368 0 0 0 0 53.894737z m107.789474 0a26.947368 26.947368 0 1 0 0-53.894737 26.947368 26.947368 0 0 0 0 53.894737z m-215.578947 107.789474a26.947368 26.947368 0 1 0 0-53.894737 26.947368 26.947368 0 0 0 0 53.894737z m107.789473 0a26.947368 26.947368 0 1 0 0-53.894737 26.947368 26.947368 0 0 0 0 53.894737z m107.789474 0a26.947368 26.947368 0 1 0 0-53.894737 26.947368 26.947368 0 0 0 0 53.894737z m-215.578947 107.789474a26.947368 26.947368 0 1 0 0-53.894737 26.947368 26.947368 0 0 0 0 53.894737z m107.789473 0a26.947368 26.947368 0 1 0 0-53.894737 26.947368 26.947368 0 0 0 0 53.894737z m107.789474 0a26.947368 26.947368 0 1 0 0-53.894737 26.947368 26.947368 0 0 0 0 53.894737z m-215.578947 107.789473a26.947368 26.947368 0 1 0 0-53.894737 26.947368 26.947368 0 0 0 0 53.894737z m107.789473 0a26.947368 26.947368 0 1 0 0-53.894737 26.947368 26.947368 0 0 0 0 53.894737z m107.789474 0a26.947368 26.947368 0 1 0 0-53.894737 26.947368 26.947368 0 0 0 0 53.894737z m-215.578947 107.789474a26.947368 26.947368 0 1 0 0-53.894737 26.947368 26.947368 0 0 0 0 53.894737z m107.789473 0a26.947368 26.947368 0 1 0 0-53.894737 26.947368 26.947368 0 0 0 0 53.894737z m107.789474 0a26.947368 26.947368 0 1 0 0-53.894737 26.947368 26.947368 0 0 0 0 53.894737z"  horiz-adv-x="2479" />

    
    <glyph glyph-name="minus" unicode="&#58952;" d="M910.016 416v-64c0-5.312-2.688-8-8-8H121.984c-5.312 0-8 2.688-8 8v64c0 5.312 2.688 8 8 8h780.032c5.312 0 8-2.688 8-8z"  horiz-adv-x="1024" />

    
    <glyph glyph-name="plus" unicode="&#58953;" d="M480 782.016h64c5.312 0 8-2.688 8-8v-780.032c0-5.312-2.688-8-8-8h-64c-5.312 0-8 2.688-8 8V774.016c0 5.312 2.688 8 8 8zM910.016 416v-64c0-5.312-2.688-8-8-8H121.984c-5.312 0-8 2.688-8 8v64c0 5.312 2.688 8 8 8h780.032c5.312 0 8-2.688 8-8z"  horiz-adv-x="1024" />

    
    <glyph glyph-name="double-right" unicode="&#58947;" d="M751.104 384L485.696 723.072a8 8 0 0 0 6.272 12.928h77.312c4.928 0 9.6-2.304 12.608-6.08l255.36-326.208a32 32 0 0 0 0-39.488l-255.36-326.144a15.872 15.872 0 0 0-12.608-6.08H491.968a8 8 0 0 0-6.272 12.928L751.104 384z m-304 0L181.696 723.072a8 8 0 0 0 6.336 12.928h77.248c4.928 0 9.6-2.304 12.608-6.08l255.36-326.208a32 32 0 0 0 0-39.488l-255.36-326.144a15.872 15.872 0 0 0-12.608-6.08H188.032a8 8 0 0 0-6.336 12.928L447.104 384z"  horiz-adv-x="1024" />

    
    <glyph glyph-name="double-left" unicode="&#58950;" d="M272.896 384l265.408 339.072a8 8 0 0 1-6.272 12.928H454.656a16.192 16.192 0 0 1-12.608-6.08l-255.36-326.208a32 32 0 0 1 0-39.488l255.36-326.144c3.008-3.84 7.68-6.08 12.608-6.08h77.248c6.72 0 10.432 7.68 6.336 12.928L272.896 384z m304 0l265.408 339.072a8 8 0 0 1-6.272 12.928h-77.312a16.192 16.192 0 0 1-12.608-6.08l-255.36-326.208a32 32 0 0 1 0-39.488l255.36-326.144c3.008-3.84 7.68-6.08 12.608-6.08h77.248c6.72 0 10.432 7.68 6.336 12.928L576.896 384z"  horiz-adv-x="1024" />

    
    <glyph glyph-name="visible" unicode="&#58951;" d="M942.208 409.792c-94.784 199.68-238.08 300.16-430.208 300.16-192.192 0-335.36-100.48-430.208-300.224a60.288 60.288 0 0 1 0-51.52c94.784-199.68 238.08-300.16 430.208-300.16 192.192 0 335.36 100.48 430.208 300.224a60.288 60.288 0 0 1 0 51.52zM512 129.984c-161.28 0-279.424 81.792-362.688 254.016C232.576 556.16 350.72 638.016 512 638.016S791.424 556.16 874.688 384c-83.2-172.16-201.28-254.016-362.688-254.016zM507.968 560a176 176 0 1 1 0-352 176 176 0 0 1 0 352z m0-288a112 112 0 1 0 0 224 112 112 0 1 0 0-224z"  horiz-adv-x="1024" />

    
    <glyph glyph-name="partially-visible" unicode="&#58928;" d="M1024 267.968v-224h-224v224H1024zM512 709.248c192.128 0 335.424-100.48 430.272-300.224a61.632 61.632 0 0 0 5.12-16.832 8 8 0 0 0-7.936-9.152h-54.4a16 16 0 0 0-14.4 8.896C787.584 558.016 670.528 637.12 512 637.12c-161.28 0-279.424-81.792-362.688-253.952C232.576 211.008 350.72 129.152 512 129.152c59.2 0 112.64 11.008 160.64 33.472a8 8 0 0 0 11.392-7.232v-55.488a16 16 0 0 0-10.496-14.976c-49.28-18.56-103.168-27.776-161.536-27.776-192.128 0-335.36 100.48-430.208 300.16a60.288 60.288 0 0 0 0 51.52C176.64 608.64 320 709.184 512.064 709.184z m-4.032-150.016a176 176 0 1 0 0-352 176 176 0 0 0 0 352z m0-64a112 112 0 1 1 0-224 112 112 0 0 1 0 224z"  horiz-adv-x="1024" />

    
    <glyph glyph-name="hidden" unicode="&#58948;" d="M942.272 409.6l-0.064 0.128-0.128 0.064c-36.352 76.736-80 138.688-130.688 185.984l-50.688-50.752c43.712-40.192 81.472-93.696 114.112-160.896-83.328-172.352-201.408-254.08-362.816-254.08-51.328 0-98.304 8.256-141.184 25.024l-54.72-54.656c58.496-28.16 123.712-42.432 195.904-42.432 192.192 0 335.36 100.48 430.208 300.288a60.16 60.16 0 0 1 0.064 51.328z m-64 332.16l-42.368 42.432a8 8 0 0 1-11.328 0L707.84 667.52c-58.368 28.288-123.52 42.496-195.776 42.496-192.192 0-335.36-100.48-430.208-300.288V409.6a60.288 60.288 0 0 1 0-51.52c36.416-76.672 80-138.688 130.688-186.112l-100.672-100.48a8 8 0 0 1 0-11.264l42.368-42.432a8 8 0 0 1 11.328 0L878.272 730.624a7.936 7.936 0 0 1 0 11.2z m-479.36-383.168a112 112 0 0 0 134.528 134.528L398.848 358.592z m184.512 184.512a176.128 176.128 0 0 1-234.496-234.496l-85.632-85.632c-43.712 40.256-81.472 93.696-114.112 160.896C232.576 556.224 350.72 637.952 512 637.952c51.328 0 98.304-8.256 141.184-25.024l-69.76-69.824zM508.032 272c-6.4 0-12.736 0.512-18.816 1.6l-51.136-51.072a176 176 0 0 1 231.488 231.488l-51.072-51.136A112.128 112.128 0 0 0 507.968 272z"  horiz-adv-x="1024" />

    
    <glyph glyph-name="arrow-rightdown" unicode="&#58921;" d="M139.023059 679.875765l634.699294-634.699294H256a7.529412 7.529412 0 0 1-7.529412-7.529412v-52.705883c0-4.156235 3.373176-7.529412 7.529412-7.529411h624.941176a7.529412 7.529412 0 0 1 7.529412 7.529411V609.882353a7.529412 7.529412 0 0 1-7.529412 7.529412h-52.705882a7.529412 7.529412 0 0 1-7.529412-7.529412v-515.855059L186.910118 727.823059a7.529412 7.529412 0 0 1-10.601412 0l-37.345882-37.285647a7.529412 7.529412 0 0 1 0-10.661647z"  horiz-adv-x="1024" />

    
    <glyph glyph-name="arrow-leftup" unicode="&#58922;" d="M908.288 37.632L233.92 712h550.08a8 8 0 0 1 8 8v56a8 8 0 0 1-8 8H120a8 8 0 0 1-8-8V112c0-4.416 3.584-8 8-8h56a8 8 0 0 1 8 8V660.096l673.408-673.408a8 8 0 0 1 11.264 0l39.68 39.616a8 8 0 0 1 0 11.328z"  horiz-adv-x="1024" />

    
    <glyph glyph-name="bus" unicode="&#58923;" d="M511.744 784a2214.4 2214.4 0 0 0 199.232-12.096c70.208-8.448 128-61.504 128-132.48v-47.424h41.024a32 32 0 0 0 32-32v-65.024a8 8 0 0 0-8-8h-32a8 8 0 0 0-8 8V544h-24.96v-439.936a16 16 0 0 0-16-16.064h-38.016V0a16 16 0 0 0-16-16h-40a16 16 0 0 0-16 16v88H312V0a16 16 0 0 0-16-16H256a16 16 0 0 0-16 16v88h-38.016a16 16 0 0 0-16 16.064V544H160v-49.024a8 8 0 0 0-8-8h-32a8 8 0 0 0-8 8V560a32 32 0 0 0 32 32h41.984v47.36c0 71.04 57.856 124.16 128 132.544a2166.016 2166.016 0 0 0 197.504 12.096z m263.232-452.992H249.984v-179.008h524.992V331.008z m-430.976-33.024a32 32 0 1 0 0-64 32 32 0 0 0 0 64z m329.984 0a32 32 0 1 0 0-64 32 32 0 0 0 0 64zM511.744 720c-46.72 0-142.528-5.888-190.08-11.584a89.728 89.728 0 0 1-52.736-24.576 62.144 62.144 0 0 1-18.944-44.48v-244.352h524.992V639.36c0 21.12-10.24 35.84-18.88 44.48a89.728 89.728 0 0 1-52.736 24.576 2152.704 2152.704 0 0 1-191.616 11.584z m87.232-23.04a24 24 0 0 0 0-48H425.024a24 24 0 0 0 0 48h173.952z"  horiz-adv-x="1024" />

    
    <glyph glyph-name="delete" unicode="&#58924;" d="M360 712H352a8 8 0 0 1 8 8v-8h304V720c0-4.416 3.584-8 8-8h-8V640H736V720a64 64 0 0 1-64 64h-320a64 64 0 0 1-64-64V640h72V712zM864 640h-704a32 32 0 0 1-32-32V576c0-4.416 3.584-8 8-8h60.416l24.704-523.008a64 64 0 0 1 63.872-60.992h454.016a63.936 63.936 0 0 1 63.872 60.992l24.704 523.008h60.416A8 8 0 0 1 896 576v32a32 32 0 0 1-32 32z m-132.672-584H292.672l-24.192 512h487.04l-24.192-512z"  horiz-adv-x="1024" />

    
    <glyph glyph-name="close" unicode="&#58926;" d="M563.84 384l262.4 312.96a7.936 7.936 0 0 1-6.016 13.056h-79.808a16.32 16.32 0 0 1-12.288-5.76L511.616 446.272 295.04 704.32a16 16 0 0 1-12.288 5.696H203.008a7.936 7.936 0 0 1-6.08-13.12L459.392 384l-262.464-312.96a7.936 7.936 0 0 1 6.08-13.056h79.808a16.32 16.32 0 0 1 12.288 5.76l216.512 258.048 216.512-258.112a16 16 0 0 1 12.288-5.696h79.808a7.936 7.936 0 0 1 6.08 13.12L563.776 384z"  horiz-adv-x="1024" />

    
    <glyph glyph-name="car" unicode="&#58927;" d="M380.032 192h264a8 8 0 0 1 7.936 8V284.032a8 8 0 0 1-7.936 7.936h-40.064a8 8 0 0 1-7.936-7.936v-36.032H427.968v36.032a8 8 0 0 1-8 7.936h-40a8 8 0 0 1-8-7.936v-84.032c0-4.416 3.648-8 8-8z m339.968 123.008a40 40 0 1 1 80 0 40 40 0 0 1-80 0z m238.976 167.616l-23.68 41.344a8 8 0 0 1-10.88 2.944l-50.688-29.632-78.336 216.192a63.872 63.872 0 0 1-60.864 44.416h-433.28c-34.752 0-65.536-22.4-76.224-55.488L150.4 497.216l-50.816 29.568a8 8 0 0 1-10.88-2.88l-23.68-41.28a7.872 7.872 0 0 1 2.88-10.88l60.416-35.2-14.528-39.936a28.544 28.544 0 0 1-1.792-9.984V38.4c0-15.68 11.776-28.416 26.24-28.416h67.648c12.288 0 23.04 9.344 25.6 22.336l7.68 37.696h545.6l7.68-37.76a26.88 26.88 0 0 1 25.6-22.272h67.648c14.528 0 26.304 12.736 26.304 28.416V386.56a28.544 28.544 0 0 1-1.792 10.048l-14.528 40 60.352 35.2c3.776 2.176 5.12 7.04 2.944 10.816z m-118.976-103.68v-236.928H184V379.008l15.616 43.008h624.768l15.616-43.008zM292.672 677.952l0.512 1.28 0.384 1.28a7.936 7.936 0 0 0 7.68 5.568h427.52l75.456-208H219.968l72.704 199.872zM224 315.008a40 40 0 1 1 80 0 40 40 0 0 1-80 0z"  horiz-adv-x="1024" />

    
    <glyph glyph-name="line" unicode="&#58929;" d="M856 832a104 104 0 1 0-39.616-200.192l-552.192-552.192a104 104 0 1 0-56.576 56.576l552.192 552.192A104 104 0 0 0 856 832z"  horiz-adv-x="1024" />

    
    <glyph glyph-name="change" unicode="&#58930;" d="M432 48.128V744a8 8 0 0 1-8 8h-60.032a8 8 0 0 1-8-8v-605.184L172.992 283.072a8.064 8.064 0 0 1-12.992-6.272v-72.512a16 16 0 0 1 6.08-12.608l214.144-168.768a32 32 0 0 1 51.776 25.216z m235.968-24.128V629.184l183.04-144.256a8.064 8.064 0 0 1 12.992 6.272V563.712a16 16 0 0 1-6.08 12.608l-214.144 168.768a32 32 0 0 1-51.776-25.088v-696c0-4.416 3.584-8 8-8h59.968a8 8 0 0 1 8 8z"  horiz-adv-x="1024" />

    
    <glyph glyph-name="layer-list" unicode="&#58931;" d="M142.4 562.752l352-196.928c10.944-6.08 24.256-6.08 35.2 0l352 196.928a36.032 36.032 0 0 1-0.128 62.848l-352 195.84a36.032 36.032 0 0 1-34.944 0l-352-195.84a36.032 36.032 0 0 1-0.128-62.848zM512 748.8l278.08-154.752L512 438.528l-278.08 155.52L512 748.8z m334.72-342.208L512 223.936 181.44 404.288a36.032 36.032 0 0 1-34.88-62.976l0.384-0.192 347.84-189.76c10.752-5.888 23.68-5.888 34.432 0l352 192a36.032 36.032 0 0 1-34.432 63.232z m0-211.584L512 12.352l-330.56 180.416a36.032 36.032 0 0 1-34.56-63.232l347.904-189.76c10.752-5.888 23.68-5.888 34.432 0l352 192a35.968 35.968 0 0 1-34.432 63.232z"  horiz-adv-x="1024" />

    
    <glyph glyph-name="ploygon" unicode="&#58932;" d="M856 832a104 104 0 0 0 35.968-201.6v-492.8a104.064 104.064 0 1 0-133.568-133.568h-492.8a104.064 104.064 0 1 0-141.632 130.24V633.728A104 104 0 1 0 265.6 763.968h492.8A104.064 104.064 0 0 0 856 832zM758.4 692.032h-492.8c-11.52-31.104-37.376-55.232-69.568-64.192v-487.68c32.192-8.96 58.112-33.088 69.568-64.192h492.8a104.32 104.32 0 0 0 61.632 61.632v492.8a104.32 104.32 0 0 0-57.664 52.352l-3.968 9.28z"  horiz-adv-x="1024" />

    
    <glyph glyph-name="list" unicode="&#58933;" d="M912 704H328A8 8 0 0 1 320 696V640c0-4.416 3.584-8 8-8h584A8 8 0 0 1 920 640v56A8 8 0 0 1 912 704z m0-284.032H328A8 8 0 0 1 320 411.968v-56c0-4.352 3.584-7.936 8-7.936h584a8 8 0 0 1 8 7.936v56.064a8 8 0 0 1-8 8z m0-283.968H328A8 8 0 0 1 320 128v-56c0-4.416 3.584-8 8-8h584a8 8 0 0 1 8 8V128a8 8 0 0 1-8 8zM104 668.032a56 56 0 1 1 112 0 56 56 0 0 1-112 0z m0-284.032a56 56 0 1 1 112 0 56 56 0 0 1-112 0z m0-284.032a56 56 0 1 1 112 0 56 56 0 0 1-112 0z"  horiz-adv-x="1024" />

    
    <glyph glyph-name="layer-manager" unicode="&#58934;" d="M954.88 163.968l-44.352 37.888a241.92 241.92 0 0 1 0 78.208l44.352 37.888a21.632 21.632 0 0 1 6.272 23.808l-0.64 1.728a300.16 300.16 0 0 1-53.888 93.312l-1.216 1.408a21.76 21.76 0 0 1-23.68 6.4l-55.04-19.52a238.272 238.272 0 0 1-67.456 39.04l-10.624 57.472a21.696 21.696 0 0 1-17.408 17.344l-1.856 0.32c-35.584 6.4-72 6.4-107.52 0l-1.856-0.32a21.696 21.696 0 0 1-17.408-17.344l-10.688-57.792c-24.32-9.216-46.976-22.336-67.008-38.848l-55.424 19.712a21.632 21.632 0 0 1-23.68-6.4l-1.28-1.472a301.568 301.568 0 0 1-53.888-93.248l-0.64-1.792a21.76 21.76 0 0 1 6.336-23.808l44.8-38.272c-4.16-25.6-4.16-51.648 0-77.248l-44.8-38.272a21.696 21.696 0 0 1-6.272-23.872l0.64-1.728a300.8 300.8 0 0 1 53.888-93.312l1.216-1.408a21.76 21.76 0 0 1 23.68-6.4l55.424 19.648c20.032-16.512 42.688-29.632 67.008-38.784l10.688-57.792a21.696 21.696 0 0 1 17.472-17.344l1.792-0.384c35.584-6.4 72-6.4 107.52 0l1.856 0.384a21.696 21.696 0 0 1 17.472 17.344l10.56 57.472c24.512 9.216 47.296 22.4 67.456 39.04l55.04-19.584c8.448-3.008 17.92-0.448 23.68 6.4l1.28 1.472c23.36 27.584 41.6 59.2 53.888 93.248l0.64 1.792a21.568 21.568 0 0 1-6.4 23.68z m-92.352 108.096c3.456-20.672 3.456-41.728 0-62.336l-4.48-27.136 50.56-43.2c-7.68-17.664-17.28-34.368-28.8-49.792l-62.784 22.208-21.248-17.408c-16.064-13.248-34.176-23.68-53.632-31.04l-25.792-9.6-12.16-65.664c-19.072-2.176-38.4-2.176-57.472 0l-12.096 65.728-25.6 9.856a189.312 189.312 0 0 0-53.12 30.848l-21.248 17.6-63.168-22.464a255.488 255.488 0 0 0-28.8 49.792l51.008 43.52-4.416 27.072a195.008 195.008 0 0 0 0 61.568l4.48 27.072-51.136 43.584c7.68 17.664 17.344 34.368 28.8 49.792l63.232-22.4 21.184 17.472c16 13.12 33.92 23.552 53.248 30.912l25.6 9.664 12.16 65.728c19.072 2.176 38.4 2.176 57.472 0l12.16-65.6 25.728-9.6c19.456-7.36 37.568-17.92 53.632-31.04l21.248-17.472 62.72 22.272c11.52-15.424 21.12-32.128 28.864-49.792l-50.56-43.2 4.48-26.944zM675.584 360a119.04 119.04 0 1 1 0-238.016 119.04 119.04 0 0 1 0 238.016z m53.568-172.608a75.776 75.776 0 1 0-107.2 107.072 75.776 75.776 0 0 0 107.2-107.008v-0.064zM334.016 171.968H163.968V741.056h569.024v-144c0-4.416 3.584-8 8-8h56a8 8 0 0 1 8 8V780.992a32 32 0 0 1-32 32H124.032a32 32 0 0 1-32-32v-648.96a32 32 0 0 1 32-32h209.92a8 8 0 0 1 8.064 7.936v56.064a8 8 0 0 1-8 7.936z"  horiz-adv-x="1024" />

    
    <glyph glyph-name="right" unicode="&#58935;" d="M765.696 409.216L314.88 761.28a7.936 7.936 0 0 1-12.864-6.272v-77.312c0-4.864 2.304-9.6 6.08-12.608L668.16 384l-360-281.088a15.872 15.872 0 0 1-6.08-12.608v-77.312c0-6.72 7.68-10.368 12.864-6.272l450.816 352.064a32 32 0 0 1 0 50.432z"  horiz-adv-x="1024" />

    
    <glyph glyph-name="search" unicode="&#58936;" d="M939.456 47.104l-186.816 186.816a373.376 373.376 0 1 1-55.36-57.728l185.6-185.6a8 8 0 0 1 11.328 0l45.248 45.248a8 8 0 0 1 0 11.264z m-481.472 121.92a292.032 292.032 0 1 0 206.464 85.504 289.984 289.984 0 0 0-206.464-85.504z"  horiz-adv-x="1024" />

    
    <glyph glyph-name="map-switch" unicode="&#58937;" d="M696.96 600.96a32 32 0 0 0 32-32v-600.96a32 32 0 0 0-32-32H96a32 32 0 0 0-32 32V568.96a32 32 0 0 0 32 32z m-39.936-504.96H136v-88h520.96V96z m0 433.024H136V160h520.96V529.024zM928 833.024a32 32 0 0 0 32-32V336a32 32 0 0 0-32-32h-119.04a8 8 0 0 0-7.936 8V368c0 4.416 3.584 8 8 8h78.976V761.024H502.976v-83.008a8 8 0 0 0-8-8H439.04a8 8 0 0 0-8 8V801.024a32 32 0 0 0 32 32z"  horiz-adv-x="1024" />

    
    <glyph glyph-name="measure" unicode="&#58938;" d="M942.656 586.88L714.88 814.72a68.032 68.032 0 0 1-96.192 0L81.344 277.248a67.968 67.968 0 0 1 0-96.192l227.712-227.712a67.968 67.968 0 0 1 96.192 0l537.408 537.408a68.032 68.032 0 0 1 0 96.192zM357.12 7.168L135.168 229.12l531.712 531.776 221.952-222.016-531.712-531.776z m149.248 523.968a8 8 0 0 1-11.328 0l-28.288-28.288a8 8 0 0 1 0-11.328l156.992-156.992a8 8 0 0 1 11.328 0l28.288 28.288a8 8 0 0 1 0 11.328L506.368 531.072zM355.008 391.104l28.288 28.224c3.84 3.84 7.552 3.84 11.328 0l125.952-125.888c3.776-3.84 3.776-7.552 0-11.328l-28.288-28.288c-3.84-3.776-7.552-3.776-11.328 0L355.008 379.776c-3.776 3.776-3.776 7.552 0 11.328zM288.64 313.28a8 8 0 0 1-11.328 0l-28.224-28.288a8 8 0 0 1 0-11.328l125.888-125.888a8 8 0 0 1 11.328 0l28.224 28.224a8 8 0 0 1 0 11.328L288.64 313.28zM606.72 642.816l-28.224-28.288a8 8 0 0 1 0-11.328l125.888-125.952a8 8 0 0 1 11.328 0l28.288 28.288a8 8 0 0 1 0 11.328L618.048 642.816a8 8 0 0 1-11.328 0z"  horiz-adv-x="1024" />

    
    <glyph glyph-name="search-list" unicode="&#58939;" d="M688 584v48A8 8 0 0 1 680 640h-384a8 8 0 0 1-8-8v-48c0-4.416 3.584-8 8-8h384a8 8 0 0 1 8 8zM296 496a8 8 0 0 1-8-8v-48c0-4.416 3.584-8 8-8H480a8 8 0 0 1 8 8v48A8 8 0 0 1 480 496H296z m144-452.032H208v704H768v-343.936c0-4.48 3.584-8 8-8H832a8 8 0 0 1 8 8v384a32 32 0 0 1-32 32h-640a32 32 0 0 1-32-32v-784a32 32 0 0 1 32-32h272A8 8 0 0 1 448-20.032v56.064a8 8 0 0 1-8 7.936z m445.696-51.456l-93.312 93.312a176 176 0 1 1-43.584-40.768l94.72-94.72a7.808 7.808 0 0 1 5.568-2.368 8.064 8.064 0 0 1 5.632 2.304l30.976 31.04a7.936 7.936 0 0 1 0 11.2z m-233.728 87.488a112 112 0 1 0 0 224 112 112 0 1 0 0-224z"  horiz-adv-x="1024" />

    
    <glyph glyph-name="solid-triangle-right" unicode="&#58940;" d="M753.066667 396.117333L357.461333 738.986667a16.042667 16.042667 0 0 1-26.453333-12.032v-685.994667a16.042667 16.042667 0 0 1 26.453333-11.946667l395.605334 342.869334a16.042667 16.042667 0 0 1 0 24.234666z"  horiz-adv-x="1024" />

    
    <glyph glyph-name="solid-triangle-down" unicode="&#58941;" d="M524.117333 142.933333l342.869334 395.605334a16.042667 16.042667 0 0 1-11.946667 26.453333H168.96a16.042667 16.042667 0 0 1-12.032-26.453333l343.04-395.605334a15.957333 15.957333 0 0 1 24.064 0z"  horiz-adv-x="1024" />

    
    <glyph glyph-name="solid-triangle-up" unicode="&#58942;" d="M499.882667 625.066667L157.013333 229.461333a16.042667 16.042667 0 0 1 12.032-26.453333h685.994667a16.042667 16.042667 0 0 1 11.946667 26.453333L524.117333 625.066667a16.042667 16.042667 0 0 1-24.234666 0z"  horiz-adv-x="1024" />

    
    <glyph glyph-name="solid-triangle-down-big" unicode="&#58943;" d="M270.912 371.904l395.584-342.912a16 16 0 0 1 26.496 12.032V726.976a16 16 0 0 1-26.496 12.032l-395.52-343.04a16 16 0 0 1 0-24.064z"  horiz-adv-x="1024" />

    
    <glyph glyph-name="solid-triangle-left" unicode="&#58944;" d="M270.933333 371.882667l395.605334-342.869334a16.042667 16.042667 0 0 1 26.453333 11.946667V727.04a16.042667 16.042667 0 0 1-26.453333 12.032L270.933333 395.946667a16.042667 16.042667 0 0 1 0-24.064z"  horiz-adv-x="1024" />

    
    <glyph glyph-name="road" unicode="&#58945;" d="M227.584 213.184a65.92 65.92 0 1 1 131.84 0 65.92 65.92 0 0 1-131.84 0z m568.384 496a46.016 46.016 0 1 1 92.032 0 46.016 46.016 0 0 1-92.032 0z m63.552-185.152l87.296 101.696c35.136 40.96 43.328 97.024 21.376 146.432A136.32 136.32 0 0 1 837.888 853.888a136.32 136.32 0 0 1-122.048-81.728 137.28 137.28 0 0 1 21.376-146.432l47.36-55.168-310.656-110.656a36.032 36.032 0 0 1-0.448-67.648l338.56-125.632-371.2-191.36 5.312 6.208c51.2 59.648 63.104 141.376 31.168 213.312A201.856 201.856 0 0 1 409.024 378.24a198.72 198.72 0 0 1-121.472 35.584 198.592 198.592 0 0 1-109.632-35.584c-29.888-21.12-53.504-49.92-68.288-83.456a200.064 200.064 0 0 1 31.168-213.312l124.992-145.728a36.352 36.352 0 0 1 40.448-10.368l0.192-0.384 611.008 315.008a35.968 35.968 0 0 1-4.032 65.728L591.36 425.28l254.72 90.816-0.064 0.256a23.04 23.04 0 0 1 13.44 7.68zM189.44 123.136a136.512 136.512 0 0 0-32.448 72.128 140.224 140.224 0 0 0 57.728 130.56c21.76 15.232 46.72 23.36 74.432 24l4.352 0.064h4.288c27.648-0.768 52.736-8.832 74.432-24.064a137.344 137.344 0 0 0 25.344-202.688L293.504 1.92 189.44 123.136z m555.008 580.288a100.224 100.224 0 0 0 41.216 93.312c15.552 10.88 33.472 16.704 53.312 17.28h6.144c19.776-0.576 37.696-6.4 53.248-17.28a98.24 98.24 0 0 0 18.112-144.96l-74.496-86.72-74.432 86.784a97.664 97.664 0 0 0-23.168 51.584z"  horiz-adv-x="1024" />

    
    <glyph glyph-name="solid-triangle-right-big" unicode="&#58946;" d="M753.088 396.096L357.504 739.008a16 16 0 0 1-26.496-12.032V40.96a16 16 0 0 1 26.496-12.032l395.52 342.912a16 16 0 0 1 0 24.192z"  horiz-adv-x="1024" />

    
    <glyph glyph-name="solid-close" unicode="&#58949;" d="M510.976 832a448 448 0 1 1 0-896 448 448 0 0 1 0 896z m172.992-644.032H614.4a8 8 0 0 0-6.464 3.264L510.976 323.264 414.72 192.256a8 8 0 0 0-6.4-3.2H338.816a8 8 0 0 0-6.464 12.672L466.304 384 331.648 567.232a8 8 0 0 0 6.4 12.8h69.504c2.56 0 4.928-1.28 6.4-3.264l97.088-132.032L608 576.768a8 8 0 0 0 6.4 3.2h69.568a8 8 0 0 0 6.4-12.736L555.648 384l134.72-183.232a8 8 0 0 0-6.4-12.8z"  horiz-adv-x="1024" />

    


  </font>
</defs>
</svg>
